<svg width="24" height="24" viewBox="0 0 24 24" fill="none" xmlns="http://www.w3.org/2000/svg">
<path d="M8.53163 2C7.04396 2 5.83796 3.11929 5.83796 4.5V9.75879C6.27202 9.64485 6.72228 9.56671 7.1848 9.52803V4.5C7.1848 3.80964 7.7878 3.25 8.53163 3.25H13.919V7.625C13.919 8.66053 14.8235 9.5 15.9392 9.5H20.6532V19.5C20.6532 20.1904 20.0502 20.75 19.3063 20.75H13.5726C13.1506 21.2243 12.6613 21.6451 12.1184 22H19.3063C20.794 22 22 20.8807 22 19.5V8.76777C22 8.27049 21.7872 7.79357 21.4083 7.44194L16.1365 2.54917C15.7576 2.19754 15.2437 2 14.7079 2H8.53163ZM20.3742 8.25H15.9392C15.5673 8.25 15.2658 7.97018 15.2658 7.625V3.50888L20.3742 8.25ZM4.57832 12.5524C4.98681 13.9039 4.11675 15.3025 2.65146 15.6499L2.03051 15.7971C2.01034 15.9871 2 16.1798 2 16.3748C2 16.6094 2.01495 16.8406 2.04399 17.0676L2.51478 17.171C4.02248 17.5018 4.91946 18.942 4.47589 20.3196L4.30573 20.8481C4.65211 21.1022 5.02887 21.3199 5.42986 21.4955L5.86758 21.0654C6.93134 20.02 8.72366 20.0209 9.78623 21.0673L10.2406 21.5147C10.6344 21.3461 11.0053 21.1369 11.3475 20.8927L11.1372 20.1969C10.7287 18.8455 11.5988 17.4468 13.0641 17.0994L13.6843 16.9524C13.7045 16.7625 13.7148 16.5698 13.7148 16.3748C13.7148 16.1401 13.6999 15.9087 13.6708 15.6815L13.2007 15.5784C11.693 15.2475 10.7961 13.8074 11.2396 12.4297L11.4096 11.9018C11.0631 11.6477 10.6863 11.4299 10.2852 11.2542L9.84794 11.684C8.78418 12.7293 6.99186 12.7285 5.92929 11.6821L5.47493 11.2346C5.08108 11.4032 4.71018 11.6123 4.36796 11.8565L4.57832 12.5524ZM7.85742 17.6248C7.11358 17.6248 6.51058 17.0652 6.51058 16.3748C6.51058 15.6845 7.11358 15.1248 7.85742 15.1248C8.60126 15.1248 9.20426 15.6845 9.20426 16.3748C9.20426 17.0652 8.60126 17.6248 7.85742 17.6248Z" fill="#242424"/>
</svg>
